<?xml version="1.0" encoding="utf-8"?>
<!-- Generator: Adobe Illustrator 18.0.0, SVG Export Plug-In . SVG Version: 6.00 Build 0)  -->
<!DOCTYPE svg PUBLIC "-//W3C//DTD SVG 1.1//EN" "http://www.w3.org/Graphics/SVG/1.1/DTD/svg11.dtd">
<svg version="1.1" id="Layer_1" xmlns="http://www.w3.org/2000/svg" xmlns:xlink="http://www.w3.org/1999/xlink" x="0px" y="0px"
	 width="22px" height="7.017545px" viewBox="1 8.491227 22 7.017545" enable-background="new 1 8.491227 22 7.017545"
	 xml:space="preserve">
<g>
	<path fill="#FFFFFF" d="M1.438082,12.129059c0,0.122371-0.059193,0.180236-0.146056,0.180236
		c-0.077611,0-0.131579-0.039448-0.185461-0.107893L1,12.310622c0.060478,0.082879,0.152566,0.148668,0.294681,0.148668
		c0.181606,0,0.309158-0.107892,0.309158-0.326291v-0.607865H1.438082V12.129059z"/>
	<path fill="#FFFFFF" d="M2.701185,12.055389c0,0.169699-0.088147,0.256561-0.231548,0.256561
		c-0.144685,0-0.232833-0.092132-0.232833-0.263158v-0.523659H2.074902v0.530255c0,0.267055,0.152652,0.40523,0.39208,0.40523
		c0.240799,0,0.396107-0.138175,0.396107-0.413154v-0.522331H2.701185V12.055389z"/>
	<polygon fill="#FFFFFF" points="3.510446,11.525134 3.348542,11.525134 3.348542,12.446141 3.994614,12.446141 3.994614,12.2988 
		3.510446,12.2988 	"/>
	<rect x="4.435437" y="11.525134" fill="#FFFFFF" width="0.161818" height="0.921008"/>
	<path fill="#FFFFFF" d="M5.432728,11.518538l-0.405187,0.927604h0.165759l0.094743-0.222339h0.435512l0.093373,0.222339h0.17107
		l-0.405272-0.927604H5.432728z M5.347236,12.080359l0.157877-0.368394l0.159248,0.368394H5.347236z"/>
	<polygon fill="#FFFFFF" points="7.052447,12.161954 6.559028,11.525134 6.409031,11.525134 6.409031,12.446141 6.568279,12.446141 
		6.568279,11.790904 7.076176,12.446141 7.211695,12.446141 7.211695,11.525134 7.052447,11.525134 	"/>
	<path fill="#FFFFFF" d="M12.351493,8.491227c-1.934736,0-3.508765,1.574029-3.508765,3.508764
		c0,1.934752,1.574029,3.508781,3.508765,3.508781s3.508764-1.57403,3.508764-3.508781
		C15.860257,10.065256,14.286228,8.491227,12.351493,8.491227z M12.351493,15.337612
		c-1.840362,0-3.337605-1.497243-3.337605-3.337621c0-1.840366,1.497243-3.337604,3.337605-3.337604
		s3.337604,1.497237,3.337604,3.337604C15.689096,13.840369,14.191854,15.337612,12.351493,15.337612z"/>
	<path fill="#FFFFFF" d="M10.279075,12.149854c0,0.143261-0.069318,0.211042-0.170973,0.211042
		c-0.090878,0-0.154044-0.046215-0.217194-0.126316l-0.124774,0.127852c0.070854,0.097046,0.178678,0.174067,0.34504,0.174067
		c0.212579,0,0.361992-0.126315,0.361992-0.382015v-0.711646h-0.194092V12.149854z"/>
	<polygon fill="#FFFFFF" points="14.916029,11.619979 14.916029,11.450542 14.116599,11.450542 14.116599,12.528796 
		14.923755,12.528796 14.923755,12.35936 14.306075,12.35936 14.306075,12.069759 14.846733,12.069759 14.846733,11.900317 
		14.306075,11.900317 14.306075,11.619979 	"/>
	<path fill="#FFFFFF" d="M11.938291,10.649966c0.004444,0.004621,0.011313,0.00514,0.015275,0.001151l0.775423-0.792058
		l-0.002661-0.002763l0.048265-0.048619c0.032429-0.032675,0.074704-0.005782,0.104509,0.033452
		c0.012881,0.016998,0.05068,0.071261,0.070377,0.099005c0.016688,0.023494,0.031273,0.024162,0.043902,0.020244
		c-0.142639-0.300871-0.394506-0.47323-0.693845-0.552881l-0.008994,0.043405l0.023493,0.024131l0.002522-0.018857
		l0.027445,0.029704l0.0038-0.017518l0.026251,0.029922l0.00621-0.006425c0.067423,0.034956,0.151817,0.092056,0.204826,0.138807
		l0.016062,0.037119l0.015682-0.007041l0.013968,0.043581l0.019857-0.012228c0.020688,0.024349,0.026743,0.04727,0.009493,0.064644
		l-0.015002,0.01512l-0.002837-0.002955l-0.775424,0.792068c-0.003956,0.003988-0.00356,0.011029,0.000878,0.01565
		L11.938291,10.649966z"/>
	<path fill="#FFFFFF" d="M12.175878,14.141417c-0.042039-0.028472-0.07593-0.046082-0.108835-0.04969
		c-0.054562,0.063054-0.12639,0.130615-0.229925,0.199949c-0.016121,0.010788-0.113499,0.071555-0.176343,0.101088
		c-0.028815,0.01353-0.041124,0.047784-0.027611,0.076556c0.013508,0.028756,0.047784,0.041113,0.076551,0.027605
		c0.015831-0.007437,0.033494-0.016565,0.051537-0.026374c0.060103-0.032685,0.124458-0.072915,0.139894-0.08326
		C12.030116,14.300932,12.113857,14.217651,12.175878,14.141417z"/>
	<path fill="#FFFFFF" d="M12.554466,13.713143c-0.065912-0.01778-0.134978-0.007705-0.19451,0.028488
		c-0.081219,0.049315-0.126781,0.117573-0.179523,0.196603c-0.000032,0.000053-0.000059,0.00008-0.000086,0.000123
		c0.040277,0.017052,0.074254,0.039089,0.100264,0.057095c0.04493-0.067257,0.081577-0.12055,0.139079-0.155463
		c0.032418-0.019611,0.069585-0.025244,0.104825-0.015735c0.035085,0.00946,0.064301,0.032851,0.082258,0.065864
		c0.038372,0.070544,0.013604,0.161946-0.055216,0.203745c-0.030571,0.018541-0.058909,0.026454-0.085989,0.026839
		c-0.030753,0.036611-0.05582,0.07163-0.078243,0.104568c0.059954,0.017438,0.130775,0.018112,0.20912-0.0245
		c0.004905-0.002666,0.009873-0.00552,0.014857-0.008545c0.120534-0.073204,0.163857-0.2334,0.096564-0.357103
		C12.674721,13.774194,12.620245,13.73087,12.554466,13.713143z"/>
	<path fill="#FFFFFF" d="M12.809684,13.673449l-0.126322,0.076712c0.020699,0.019976,0.038527,0.043308,0.052812,0.06957
		c0.004545,0.008368,0.008641,0.016908,0.012287,0.025533l0.120962-0.073456c0.027155-0.016496,0.035796-0.051891,0.0193-0.079051
		C12.872223,13.665595,12.836957,13.656841,12.809684,13.673449z"/>
	<path fill="#FFFFFF" d="M11.893355,14.211414c0.002093-0.04992,0.028226-0.098299,0.07313-0.125566
		c0.092671-0.056152,0.164982-0.015269,0.243267,0.039806c0.0059,0.004149,0.011511,0.008106,0.016811,0.01172
		c0.00076,0.000525,0.001579,0.001103,0.002361,0.001638c0.019547-0.029082,0.041193-0.060499,0.066795-0.093726
		c-0.001424-0.000991-0.002874-0.002007-0.004251-0.002939c-0.004889-0.003346-0.010055-0.006987-0.0155-0.010816
		c-0.071528-0.050316-0.204702-0.144021-0.369225-0.044041c-0.101971,0.061923-0.148663,0.186103-0.119902,0.297776
		c0.01633-0.010028,0.028232-0.01762,0.032349-0.020377C11.84601,14.246943,11.870638,14.229093,11.893355,14.211414z"/>
	<path fill="#FFFFFF" d="M12.592324,13.952802c-0.001226-0.016244-0.005734-0.032353-0.013857-0.047291
		c-0.011955-0.021989-0.030351-0.03834-0.052452-0.046896c-0.150703,0.119168-0.225798,0.231569-0.284129,0.318978
		c-0.047018,0.070426-0.084143,0.126064-0.14355,0.162133c-0.030657,0.0186-0.065779,0.024602-0.099385,0.017048
		c-0.024629,0.01892-0.051087,0.038029-0.07987,0.057302c-0.005466,0.003652-0.015848,0.010296-0.029366,0.018681
		c0.022315,0.01512,0.047131,0.026614,0.073853,0.033826c0.065912,0.01777,0.134931,0.007683,0.19452-0.028488
		c0.081214-0.049332,0.126765-0.117579,0.179518-0.196613C12.393376,14.157923,12.459589,14.058805,12.592324,13.952802z"/>
	<path fill="#FFFFFF" d="M14.006345,13.613677c0.031075-0.036267,0.047527-0.069468,0.037483-0.079511
		c-0.008695-0.00869-0.034769,0.0025-0.065115,0.025752l-0.031567-0.031722c0.007939-0.015982,0.009739-0.029725,0.002976-0.036488
		c-0.006741-0.006745-0.020441-0.004968-0.03638,0.002929l-1.487242-1.494458l1.402687-1.395914
		c0.02813,0.017459,0.052892,0.023316,0.06376,0.012448c0.010493-0.0105,0.005552-0.033913-0.010521-0.060843l0.097876-0.091494
		c-0.049064,0.090974-0.042002,0.212937-0.042002,0.212937s0.026283,0.108711,0.135-0.069543
		c0.029746-0.048779,0.050123-0.099043,0.059745-0.146222c0.008234-0.040368,0.008973-0.078462,0.003218-0.112545
		c-0.000236-0.001419-0.003754-0.013465-0.006783-0.024076l0.013123-0.012266
		c0.054461-0.169436-0.105901-0.105896-0.105901-0.105896l-0.254297,0.254292
		c-0.022096-0.011007-0.040743-0.013653-0.049754-0.004642c-0.010874,0.010874-0.005,0.035657,0.012475,0.063797l-1.394034,1.404186
		l-1.39533-1.402098c0.017459-0.028125,0.023316-0.052887,0.012443-0.063755
		c-0.010494-0.010499-0.033913-0.005552-0.060843,0.010521l-0.091494-0.097881
		c0.090974,0.049069,0.212942,0.042002,0.212942,0.042002s0.108712-0.026282-0.069542-0.134995
		c-0.048785-0.029752-0.099043-0.050123-0.146222-0.05975c-0.040374-0.008235-0.078462-0.008974-0.112545-0.003218
		c-0.001419,0.00024-0.013465,0.003753-0.024076,0.006788l-0.012266-0.013123
		c-0.169436-0.054465-0.105902,0.105896-0.105902,0.105896l0.254297,0.254296
		c-0.011013,0.022101-0.013653,0.040744-0.004642,0.049754c0.010874,0.010874,0.035652,0.005006,0.063798-0.012469
		l1.404058,1.393907l-1.483842,1.494646c-0.018005-0.010066-0.033768-0.012758-0.041188-0.005338
		c-0.007447,0.007447-0.004727,0.02329,0.005424,0.041365l-0.029784,0.029998
		c-0.032171-0.025538-0.060243-0.038008-0.069344-0.028906c-0.010056,0.010055,0.00644,0.043313,0.037584,0.079629
		l-0.137178,0.16178c0,0-0.029297,0.052394,0.02194,0.02194l0.158434-0.140541
		c0.036273,0.03108,0.069473,0.047527,0.079516,0.037483c0.00869-0.00869-0.0025-0.034768-0.025752-0.065115l0.031716-0.031567
		c0.015987,0.00794,0.029726,0.009739,0.036488,0.002982c0.006746-0.006746,0.004969-0.020441-0.002923-0.03638l1.494319-1.487113
		l1.495241,1.48443c-0.010066,0.018-0.012764,0.033762-0.005339,0.041188c0.007447,0.007447,0.023285,0.004722,0.04136-0.005429
		l0.029998,0.029784c-0.025538,0.032172-0.038008,0.060248-0.028906,0.069345c0.010055,0.01006,0.043319-0.006441,0.079635-0.037585
		l0.16178,0.137179c0,0,0.052394,0.029302,0.021935-0.021935L14.006345,13.613677z M14.036193,10.415715
		c0.001044-0.002222,0.002228-0.004438,0.003293-0.006666l0.058219-0.054418c0.011484,0.036273,0.014761,0.07539,0.000422,0.123998
		c-0.011034,0.037424-0.032445,0.075416-0.052013,0.113151c-0.011908,0.022947-0.024906,0.05484-0.04765,0.073874
		c-0.003507,0.002934-0.007704,0.005183-0.010997,0.005075c-0.003357-0.000113-0.005172-0.002559-0.006499-0.005129
		c-0.009916-0.019108-0.005269-0.052222-0.001216-0.078709c0.004-0.026121,0.010992-0.053245,0.020024-0.080667
		C14.009626,10.476333,14.021903,10.446002,14.036193,10.415715z M10.767205,10.315296
		c-0.002216-0.001044-0.004438-0.002222-0.00666-0.003292l-0.054418-0.058214
		c0.036268-0.011484,0.075384-0.014766,0.123998-0.000428c0.037424,0.011035,0.075416,0.032445,0.113151,0.052019
		c0.022946,0.011902,0.054835,0.024906,0.073868,0.047645c0.002939,0.003512,0.005188,0.00771,0.005075,0.011003
		c-0.000107,0.003351-0.002553,0.005167-0.005123,0.006499c-0.019109,0.009911-0.052222,0.005269-0.078709,0.001216
		c-0.026122-0.004004-0.05325-0.010992-0.080667-0.020029C10.827828,10.341863,10.797492,10.329586,10.767205,10.315296z"/>
	<polygon fill="#FFFFFF" points="17.642366,12.054061 18.104177,12.054061 18.104177,11.909333 17.642366,11.909333 
		17.642366,11.669862 18.16337,11.669862 18.16337,11.525134 17.480463,11.525134 17.480463,12.446141 18.169968,12.446141 
		18.169968,12.301414 17.642366,12.301414 	"/>
	<polygon fill="#FFFFFF" points="19.002785,12.233011 18.725235,11.525134 18.546286,11.525134 18.929113,12.452738 
		19.07123,12.452738 19.454144,11.525134 19.279135,11.525134 	"/>
	<path fill="#FFFFFF" d="M20.069805,11.518538l-0.405188,0.927604h0.16576l0.094742-0.222339h0.435513l0.093372,0.222339h0.17107
		l-0.405273-0.927604H20.069805z M19.984314,12.080359l0.157877-0.368394l0.159248,0.368394H19.984314z"/>
	<polygon fill="#FFFFFF" points="21.689526,12.161954 21.196106,11.525134 21.046108,11.525134 21.046108,12.446141 
		21.205357,12.446141 21.205357,11.790904 21.713253,12.446141 21.848772,12.446141 21.848772,11.525134 21.689526,11.525134 	"/>
	<path fill="#FFFFFF" d="M22.703949,11.911946c-0.176294-0.042104-0.218355-0.07367-0.218355-0.146056
		c0-0.061806,0.055252-0.110505,0.149996-0.110505c0.084208,0,0.167044,0.032894,0.249966,0.094743l0.086863-0.12237
		c-0.09346-0.074998-0.200024-0.115773-0.334259-0.115773c-0.18289,0-0.314383,0.107892-0.314383,0.268382
		c0,0.17107,0.110504,0.228935,0.306501,0.276307c0.17107,0.039491,0.207905,0.074998,0.207905,0.142116
		c0,0.071057-0.063133,0.117101-0.163189,0.117101c-0.114445,0-0.202593-0.043431-0.290739-0.119757l-0.097401,0.115817
		c0.110592,0.098683,0.243456,0.14734,0.384201,0.14734C22.864481,12.459291,23,12.356667,23,12.182984
		C23,12.029048,22.898746,11.959317,22.703949,11.911946z"/>
</g>
</svg>
